HIERARCHY
ROOT hip
{
  OFFSET 2.40861 87.2529 219.377
  CHANNELS 6 Xposition Yposition Zposition Zrotation Xrotation Yrotation
  JOINT abdomen
  {
    OFFSET 0 20.6881 -0.73152
    CHANNELS 3 Zrotation Xrotation Yrotation
    JOINT chest
    {
      OFFSET 0 11.7043 -0.48768
      CHANNELS 3 Zrotation Xrotation Yrotation
      JOINT neck
      {
        OFFSET 0 22.1894 -2.19456
        CHANNELS 3 Zrotation Xrotation Yrotation
        JOINT head
        {
          OFFSET -0.24384 7.07133 1.2192
          CHANNELS 3 Zrotation Xrotation Yrotation
          JOINT leftEye
          {
            OFFSET 4.14528 8.04674 8.04672
            CHANNELS 3 Zrotation Xrotation Yrotation
            End Site
            {
              OFFSET 1 0 0
            }
          }
          JOINT rightEye
          {
            OFFSET -3.6576 8.04674 8.04672
            CHANNELS 3 Zrotation Xrotation Yrotation
            End Site
            {
              OFFSET 1 0 0
            }
          }
        }
      }
      JOINT rCollar
      {
        OFFSET -2.68224 19.2634 -4.8768
        CHANNELS 3 Zrotation Xrotation Yrotation
        JOINT rShldr
        {
          OFFSET -8.77824 -1.95073 1.46304
          CHANNELS 3 Zrotation Xrotation Yrotation
          JOINT rForeArm
          {
            OFFSET -28.1742 -1.7115 0.48768
            CHANNELS 3 Zrotation Xrotation Yrotation
            JOINT rHand
            {
              OFFSET -22.5879 0.773209 7.07136
              CHANNELS 3 Zrotation Xrotation Yrotation
              JOINT rThumb1
              {
                OFFSET -1.2192 -0.487915 3.41376
                CHANNELS 3 Zrotation Xrotation Yrotation
                JOINT rThumb2
                {
                  OFFSET -3.37035 -0.52449 3.41376
                  CHANNELS 3 Zrotation Xrotation Yrotation
                  End Site
                  {
                    OFFSET -1.78271 -1.18214 1.43049
                  }
                }
              }
              JOINT rIndex1
              {
                OFFSET -7.75947 0.938293 5.60832
                CHANNELS 3 Zrotation Xrotation Yrotation
                JOINT rIndex2
                {
                  OFFSET -2.54057 -0.884171 1.56538
                  CHANNELS 3 Zrotation Xrotation Yrotation
                  End Site
                  {
                    OFFSET -1.62519 -0.234802 1.16502
                  }
                }
              }
              JOINT rMid1
              {
                OFFSET -8.24714 1.18213 3.41376
                CHANNELS 3 Zrotation Xrotation Yrotation
                JOINT rMid2
                {
                  OFFSET -3.10165 -0.590103 1.0647
                  CHANNELS 3 Zrotation Xrotation Yrotation
                  End Site
                  {
                    OFFSET -2.48547 -0.328903 0.83742
                  }
                }
              }
              JOINT rRing1
              {
                OFFSET -8.82822 0.546677 1.51678
                CHANNELS 3 Zrotation Xrotation Yrotation
                JOINT rRing2
                {
                  OFFSET -2.60934 -0.819778 -0.0198488
                  CHANNELS 3 Zrotation Xrotation Yrotation
                  End Site
                  {
                    OFFSET -2.33842 -0.294052 0.168128
                  }
                }
              }
              JOINT rPinky1
              {
                OFFSET -8.27202 -0.0477905 -0.4584
                CHANNELS 3 Zrotation Xrotation Yrotation
                JOINT rPinky2
                {
                  OFFSET -1.82734 -0.647385 -0.700984
                  CHANNELS 3 Zrotation Xrotation Yrotation
                  End Site
                  {
                    OFFSET -1.69225 -0.51767 -0.607171
                  }
                }
              }
            }
          }
        }
      }
      JOINT lCollar
      {
        OFFSET 2.68224 19.2634 -4.8768
        CHANNELS 3 Zrotation Xrotation Yrotation
        JOINT lShldr
        {
          OFFSET 8.77824 -1.95073 1.46304
          CHANNELS 3 Zrotation Xrotation Yrotation
          JOINT lForeArm
          {
            OFFSET 28.1742 -1.7115 0.48768
            CHANNELS 3 Zrotation Xrotation Yrotation
            JOINT lHand
            {
              OFFSET 22.5879 0.773209 7.07136
              CHANNELS 3 Zrotation Xrotation Yrotation
              JOINT lThumb1
              {
                OFFSET 1.2192 -0.487915 3.41376
                CHANNELS 3 Zrotation Xrotation Yrotation
                JOINT lThumb2
                {
                  OFFSET 3.37035 -0.52449 3.41376
                  CHANNELS 3 Zrotation Xrotation Yrotation
                  End Site
                  {
                    OFFSET 1.78271 -1.18214 1.43049
                  }
                }
              }
              JOINT lIndex1
              {
                OFFSET 7.75947 0.938293 5.60832
                CHANNELS 3 Zrotation Xrotation Yrotation
                JOINT lIndex2
                {
                  OFFSET 2.54057 -0.884171 1.56538
                  CHANNELS 3 Zrotation Xrotation Yrotation
                  End Site
                  {
                    OFFSET 1.62519 -0.234802 1.16502
                  }
                }
              }
              JOINT lMid1
              {
                OFFSET 8.24714 1.18213 3.41376
                CHANNELS 3 Zrotation Xrotation Yrotation
                JOINT lMid2
                {
                  OFFSET 3.10165 -0.590103 1.0647
                  CHANNELS 3 Zrotation Xrotation Yrotation
                  End Site
                  {
                    OFFSET 2.48547 -0.328903 0.83742
                  }
                }
              }
              JOINT lRing1
              {
                OFFSET 8.82822 0.546677 1.51678
                CHANNELS 3 Zrotation Xrotation Yrotation
                JOINT lRing2
                {
                  OFFSET 2.60934 -0.819778 -0.0198488
                  CHANNELS 3 Zrotation Xrotation Yrotation
                  End Site
                  {
                    OFFSET 2.33842 -0.294052 0.168128
                  }
                }
              }
              JOINT lPinky1
              {
                OFFSET 8.27202 -0.0477905 -0.4584
                CHANNELS 3 Zrotation Xrotation Yrotation
                JOINT lPinky2
                {
                  OFFSET 1.82734 -0.647385 -0.700984
                  CHANNELS 3 Zrotation Xrotation Yrotation
                  End Site
                  {
                    OFFSET 1.69225 -0.51767 -0.607171
                  }
                }
              }
            }
          }
        }
      }
    }
  }
  JOINT rButtock
  {
    OFFSET -8.77824 4.35084 1.2192
    CHANNELS 3 Zrotation Xrotation Yrotation
    JOINT rThigh
    {
      OFFSET 0 -1.70687 -2.19456
      CHANNELS 3 Zrotation Xrotation Yrotation
      JOINT rShin
      {
        OFFSET 0 -36.8199 0.73152
        CHANNELS 3 Zrotation Xrotation Yrotation
        JOINT rFoot
        {
          OFFSET 0.73152 -45.1104 -5.12064
          CHANNELS 3 Zrotation Xrotation Yrotation
          End Site
          {
            OFFSET -1.1221 -3.69964 12.103
          }
        }
      }
    }
  }
  JOINT lButtock
  {
    OFFSET 8.77824 4.35084 1.2192
    CHANNELS 3 Zrotation Xrotation Yrotation
    JOINT lThigh
    {
      OFFSET 0 -1.70687 -2.19456
      CHANNELS 3 Zrotation Xrotation Yrotation
      JOINT lShin
      {
        OFFSET 0 -36.8199 0.73152
        CHANNELS 3 Zrotation Xrotation Yrotation
        JOINT lFoot
        {
          OFFSET -0.73152 -45.1104 -5.12064
          CHANNELS 3 Zrotation Xrotation Yrotation
          End Site
          {
            OFFSET 1.1221 -3.69964 12.103
          }
        }
      }
    }
  }
}
MOTION
Frames:	7
Frame Time:	0.00833333
1.9784 88.2982 44.3804 7.51193 4.19862 1.65318 -11.2925 14.7727 -9.43 3.36977 -8.41268 -2.8728 -0.565284 10.2868 3.17468 -1.57094 -37.8147 6.04591 -0 0 0 -0 0 0 1.3578e-013 4.45264e-014 9.23852e-014 90.5531 27.8551 -33.7626 -27.7637 -29.3518 66.2154 -0.0524206 -6.51984 -0.920319 -7.63916e-010 6.81858e-010 -4.75432e-010 -1.31818e-009 1.17562e-009 -8.25744e-010 -7.63914e-010 6.81862e-010 -4.75452e-010 7.73091 5.47488 0.417314 -7.63916e-010 6.8186e-010 -4.75436e-010 2.90554 0.965183 0.102902 -7.63907e-010 6.81859e-010 -4.75433e-010 10.2786 0.731801 0.0259123 -7.63922e-010 6.81859e-010 -4.75426e-010 2.22167 -0.733487 -0.20892 1.35769e-013 4.45291e-014 9.20373e-014 -59.5223 40.2039 -25.6436 24.9986 -47.9941 -99.95 1.51122 -32.6221 5.16107 1.84701e-010 -1.23576e-009 -6.05721e-010 3.36072e-010 -2.16953e-009 -1.04583e-009 1.84702e-010 -1.23576e-009 -6.05714e-010 -7.73091 5.47488 -0.417314 1.84704e-010 -1.23576e-009 -6.05708e-010 -2.90554 0.965183 -0.102902 1.84692e-010 -1.23576e-009 -6.05713e-010 -10.2786 0.731801 -0.0259123 1.84705e-010 -1.23576e-009 -6.05714e-010 -2.22167 -0.733487 0.20892 -2.03217e-016 0 -3.88251e-019 -8.82668 -51.4043 -2.13133 -2.4092 72.3613 2.9861 -0.457671 10.7335 -2.01677 2.03217e-016 0 3.88251e-019 -10.9645 14.773 -1.86685 -0.0715649 12.95 -0.923592 -0.118566 26.7794 1.56568 
1.99175 88.9335 47.446 7.0615 4.4673 1.23746 -10.5988 14.0962 -9.46152 3.5299 -8.22007 -2.81319 -0.434704 10.1658 3.25671 -1.84933 -37.1571 6.1071 -0 0 0 -0 0 0 1.33439e-013 2.51579e-014 9.74689e-014 90.794 27.4942 -34.5115 -27.828 -29.6613 66.6909 -0.0615069 -7.01627 -0.99115 -5.78677e-010 6.92517e-010 -1.04616e-009 -9.94581e-010 1.1902e-009 -1.81161e-009 -5.78674e-010 6.92521e-010 -1.04618e-009 7.73091 5.47488 0.417314 -5.78678e-010 6.92518e-010 -1.04616e-009 2.90554 0.965183 0.102902 -5.78669e-010 6.92517e-010 -1.04616e-009 10.2786 0.731801 0.0259123 -5.78682e-010 6.92517e-010 -1.04615e-009 2.22167 -0.733487 -0.20892 1.33419e-013 2.51593e-014 9.71343e-014 -59.1026 41.1247 -25.8072 24.8145 -48.2701 -100.594 1.4857 -32.3812 5.11335 1.95267e-010 -6.40774e-010 -1.77415e-010 3.44845e-010 -1.12456e-009 -3.06573e-010 1.95269e-010 -6.40767e-010 -1.77409e-010 -7.73091 5.47488 -0.417314 1.9527e-010 -6.40768e-010 -1.77405e-010 -2.90554 0.965183 -0.102902 1.95259e-010 -6.40767e-010 -1.77409e-010 -10.2786 0.731801 -0.0259123 1.95271e-010 -6.40767e-010 -1.77411e-010 -2.22167 -0.733487 0.20892 -2.03217e-016 0 -3.88251e-019 -6.94177 -50.8653 -0.16083 -1.69404 67.561 2.22518 -0.483262 9.78507 -2.22611 2.03217e-016 0 3.88251e-019 -10.317 17.0869 -2.14826 -0.0683095 9.72472 -0.792726 -1.29303 31.4465 3.56242 
1.95404 89.4786 50.2547 6.59861 4.80824 0.776287 -9.89349 13.3761 -9.39452 3.67251 -7.96484 -2.73238 -0.249297 10.0543 3.31426 -2.14768 -36.572 6.10955 -0 0 0 -0 0 0 9.85174e-014 9.04502e-015 8.40114e-014 91.0281 27.1458 -35.225 -27.8996 -30.0299 67.2703 -0.0681171 -7.39178 -1.04476 -2.40683e-010 6.15366e-010 -1.4617e-009 -4.06866e-010 1.0531e-009 -2.52846e-009 -2.40678e-010 6.1537e-010 -1.46172e-009 7.73091 5.47488 0.417314 -2.40684e-010 6.15367e-010 -1.4617e-009 2.90554 0.965183 0.102902 -2.40676e-010 6.15367e-010 -1.4617e-009 10.2786 0.731801 0.0259123 -2.40687e-010 6.15366e-010 -1.46169e-009 2.22167 -0.733487 -0.20892 9.84847e-014 9.04411e-015 8.3707e-014 -58.661 42.1708 -25.9294 24.6391 -48.5284 -101.195 1.40633 -31.6242 4.96444 1.24814e-010 3.94516e-010 4.36175e-010 2.08443e-010 6.89259e-010 7.52164e-010 1.24815e-010 3.94521e-010 4.36182e-010 -7.73091 5.47488 -0.417314 1.24817e-010 3.94521e-010 4.36181e-010 -2.90554 0.965183 -0.102902 1.24807e-010 3.94522e-010 4.36179e-010 -10.2786 0.731801 -0.0259123 1.24818e-010 3.94522e-010 4.36176e-010 -2.22167 -0.733487 0.20892 -2.03217e-016 0 -3.88251e-019 -5.15236 -50.2054 1.81351 -1.23226 62.4703 1.70003 -0.49447 9.11949 -2.43464 2.03217e-016 0 3.88251e-019 -9.64706 19.1755 -2.4316 -0.0669228 6.73385 -0.629486 -2.89427 35.6935 5.91445 
1.87015 90.0476 52.9299 6.20271 5.14144 0.362685 -9.23557 12.7332 -9.32626 3.80288 -7.71408 -2.65909 -0.0709562 9.93136 3.36032 -2.39336 -36.0606 6.10855 -0 0 0 -0 0 0 5.69378e-014 -7.61453e-015 6.43915e-014 91.2264 26.829 -35.8399 -27.9643 -30.3934 67.8595 -0.0725067 -7.65083 -1.08177 1.03666e-010 5.03236e-010 -1.73599e-009 1.91205e-010 8.56312e-010 -3.00103e-009 1.03672e-010 5.03239e-010 -1.73601e-009 7.73091 5.47488 0.417314 1.03665e-010 5.03236e-010 -1.73599e-009 2.90554 0.965183 0.102902 1.03672e-010 5.03236e-010 -1.73599e-009 10.2786 0.731801 0.0259123 1.03663e-010 5.03236e-010 -1.73598e-009 2.22167 -0.733487 -0.20892 5.68888e-014 -7.6178e-015 6.41205e-014 -58.2554 43.2511 -25.9913 24.4767 -48.7605 -101.741 1.30867 -30.6414 4.77534 3.92038e-011 1.36498e-009 9.7989e-010 4.71146e-011 2.38881e-009 1.69019e-009 3.92047e-011 1.36498e-009 9.79897e-010 -7.73091 5.47488 -0.417314 3.92071e-011 1.36499e-009 9.7989e-010 -2.90554 0.965183 -0.102902 3.91983e-011 1.36499e-009 9.7989e-010 -10.2786 0.731801 -0.0259123 3.92077e-011 1.36499e-009 9.79886e-010 -2.22167 -0.733487 0.20892 -2.03217e-016 0 -3.88251e-019 -3.5868 -49.3759 3.75313 -0.922855 57.2943 1.3159 -0.484946 8.61265 -2.80875 2.03217e-016 0 3.88251e-019 -9.07601 21.0044 -2.7614 -0.056531 4.26013 -0.460934 -4.60098 39.1679 8.15406 
1.97021 90.561 55.6905 5.94894 5.38706 0.090023 -8.68883 12.2893 -9.35202 3.92712 -7.53496 -2.62187 0.0386071 9.77582 3.40784 -2.5164 -35.6241 6.15788 -0 0 0 -0 0 0 3.4623e-014 -2.86229e-014 5.09883e-014 91.3612 26.5635 -36.2938 -28.0137 -30.6941 68.3577 -0.0751635 -7.79788 -1.10281 3.0797e-010 4.08956e-010 -1.88296e-009 5.45874e-010 6.91818e-010 -3.25406e-009 3.07976e-010 4.08959e-010 -1.88297e-009 7.73091 5.47488 0.417314 3.07969e-010 4.08956e-010 -1.88296e-009 2.90554 0.965183 0.102902 3.07976e-010 4.08957e-010 -1.88295e-009 10.2786 0.731801 0.0259123 3.07967e-010 4.08956e-010 -1.88295e-009 2.22167 -0.733487 -0.20892 3.45564e-014 -2.86277e-014 5.07398e-014 -57.947 44.2748 -25.9683 24.3318 -48.9581 -102.218 1.22195 -29.724 4.60242 4.30011e-012 1.7655e-009 1.19857e-009 -1.88949e-011 3.09096e-009 2.06731e-009 4.29931e-012 1.7655e-009 1.19858e-009 -7.73091 5.47488 -0.417314 4.30329e-012 1.7655e-009 1.19856e-009 -2.90554 0.965183 -0.102902 4.29543e-012 1.7655e-009 1.19857e-009 -10.2786 0.731801 -0.0259123 4.30369e-012 1.7655e-009 1.19856e-009 -2.22167 -0.733487 0.20892 -2.03217e-016 0 -3.88251e-019 -2.37932 -48.3311 5.61595 -0.702891 52.2374 1.01578 -0.45569 8.14005 -3.51394 2.03217e-016 0 3.88251e-019 -8.7207 22.5384 -3.18326 -0.0348464 2.58647 -0.31334 -5.86524 41.571 9.65354 
2.09104 91.0397 58.4738 5.88202 5.51679 0.00420206 -8.28363 12.1079 -9.52293 4.05742 -7.46051 -2.63971 0.0502431 9.52118 3.46961 -2.47799 -35.2296 6.29951 -0 0 0 -0 0 0 4.53971e-014 -6.12854e-014 4.94815e-014 91.4039 26.3681 -36.5717 -28.0504 -30.9262 68.7374 -0.0751094 -7.79032 -1.10174 2.97822e-010 3.59338e-010 -1.89e-009 5.28163e-010 6.06404e-010 -3.26606e-009 2.97826e-010 3.5934e-010 -1.89002e-009 7.73091 5.47488 0.417314 2.97821e-010 3.59337e-010 -1.89e-009 2.90554 0.965183 0.102902 2.97827e-010 3.59338e-010 -1.89e-009 10.2786 0.731801 0.0259123 2.97818e-010 3.59337e-010 -1.88999e-009 2.22167 -0.733487 -0.20892 4.53045e-014 -6.12909e-014 4.92376e-014 -57.759 45.2159 -25.867 24.2022 -49.1299 -102.638 1.14476 -28.8822 4.44599 6.28358e-011 1.25472e-009 9.07201e-010 8.86941e-011 2.19897e-009 1.56438e-009 6.28312e-011 1.25473e-009 9.07214e-010 -7.73091 5.47488 -0.417314 6.28383e-011 1.25472e-009 9.07198e-010 -2.90554 0.965183 -0.102902 6.28308e-011 1.25472e-009 9.072e-010 -10.2786 0.731801 -0.0259123 6.28381e-011 1.25472e-009 9.07195e-010 -2.22167 -0.733487 0.20892 -2.03217e-016 0 -3.88251e-019 -1.62142 -46.9099 7.51396 -0.532046 47.0684 0.762385 -0.40511 7.77824 -4.7293 2.03217e-016 0 3.88251e-019 -8.65141 23.9306 -3.74731 -0.0169599 1.52983 -0.181966 -6.09971 42.5834 9.81768 
2.18184 91.4373 61.2714 5.95045 5.57569 0.0486891 -7.98178 12.1136 -9.77866 4.18739 -7.44988 -2.69351 0.00148086 9.19901 3.53562 -2.3239 -34.8874 6.49431 -0 0 0 -0 0 0 7.31309e-014 -1.01477e-013 5.2476e-014 91.3802 26.2288 -36.7083 -28.0809 -31.1219 69.0487 -0.0721748 -7.64038 -1.08026 1.63091e-010 3.21963e-010 -1.75514e-009 2.93846e-010 5.4359e-010 -3.0332e-009 1.63092e-010 3.21965e-010 -1.75516e-009 7.73091 5.47488 0.417314 1.6309e-010 3.21963e-010 -1.75514e-009 2.90554 0.965183 0.102902 1.63095e-010 3.21963e-010 -1.75514e-009 10.2786 0.731801 0.0259123 1.63086e-010 3.21963e-010 -1.75513e-009 2.22167 -0.733487 -0.20892 7.30055e-014 -1.01483e-013 5.22276e-014 -57.6656 46.1246 -25.688 24.0896 -49.279 -103 1.0662 -27.9831 4.28185 1.71294e-010 1.70924e-010 2.80866e-010 2.90346e-010 3.04248e-010 4.83415e-010 1.71284e-010 1.70939e-010 2.80883e-010 -7.73091 5.47488 -0.417314 1.71296e-010 1.70926e-010 2.80865e-010 -2.90554 0.965183 -0.102902 1.71288e-010 1.70924e-010 2.80867e-010 -10.2786 0.731801 -0.0259123 1.71295e-010 1.7092e-010 2.80862e-010 -2.22167 -0.733487 0.20892 -2.03217e-016 0 -3.88251e-019 -1.28845 -45.19 9.38622 -0.404039 41.774 0.541557 -0.335391 7.55311 -6.32113 2.03217e-016 0 3.88251e-019 -8.7874 25.1434 -4.41875 -0.00762077 1.0256 -0.0549132 -5.4801 42.4838 8.94401 
